<svg enable-background="new 0 0 48 48" viewBox="0 0 48 48" xmlns="http://www.w3.org/2000/svg"><path d="m25 22h13l6 6v-17c0-2.2-1.8-4-4-4h-15c-2.2 0-4 1.8-4 4v7c0 2.2 1.8 4 4 4z" fill="#0069D8"/><path d="m23 19h-13l-6 6v-17c0-2.2 1.8-4 4-4h15c2.2 0 4 1.8 4 4v7c0 2.2-1.8 4-4 4z" fill="#3697ff"/><circle cx="12" cy="31" fill="#947547" r="5"/><circle cx="36" cy="31" fill="#ffcd9e" r="5"/><g fill="#607d8b"><path d="m20 42s-2.2-4-8-4-8 4-8 4v2h16z"/><path d="m44 42s-2.2-4-8-4-8 4-8 4v2h16z"/></g></svg>
