<svg height="42" viewBox="0 0 40 42" width="40" xmlns="http://www.w3.org/2000/svg"><g fill="none"><path d="m28 38h-28v-38h19l9 9z" fill="#c2dfff"/><path d="m26.5 10h-8.5v-8.5z" fill="#fff"/><path d="m33.336711 30.833606h2.799577v11.998188h-2.799577z" fill="#0273d4" transform="matrix(.70710678 -.70710678 .70710678 .70710678 -15.870567 35.350463)"/><circle cx="23" cy="25" fill="#0273d4" r="11"/><circle cx="23" cy="25" fill="#dff1fc" r="9"/><path d="m34.514161 33.616007h2.799577v8.698686h-2.799577z" fill="#0069D8" transform="matrix(.70710678 -.70710678 .70710678 .70710678 -16.326604 36.514791)"/><g fill="#4e4e4e" transform="translate(6 16)"><path d="m19 11h-9.7c.4 1.6 1.3 3 2.5 4h7.2z"/><path d="m9.3 7h9.7v-4h-7.3c-1.2 1-2 2.4-2.4 4z"/><path d="m9.1 0h-9.1v2h7.3c.5-.7 1.1-1.4 1.8-2z"/><path d="m6.1 4h-6.1v2h5.4c.2-.7.4-1.4.7-2z"/><path d="m5 9c0-.3 0-.7.1-1h-5.1v2h5.1c-.1-.3-.1-.7-.1-1z"/><path d="m5.4 12h-5.4v2h6.1c-.3-.6-.5-1.3-.7-2z"/></g></g></svg>
