<svg height="44" viewBox="0 0 32 44" width="32" xmlns="http://www.w3.org/2000/svg"><g fill="none"><path d="m28 4h-10c0 1.1-.9 2-2 2s-2-.9-2-2h-10c-2.2 0-4 1.8-4 4v32c0 2.2 1.8 4 4 4h24c2.2 0 4-1.8 4-4v-32c0-2.2-1.8-4-4-4z" fill="#455a64"/><path d="m28 41h-24c-.6 0-1-.4-1-1v-32c0-.6.4-1 1-1h24c.6 0 1 .4 1 1v32c0 .6-.4 1-1 1z" fill="#fff"/><g fill="#90a4ae" transform="translate(7)"><path d="m11 4c0 1.1-.9 2-2 2s-2-.9-2-2h-7v4c0 1.1.9 2 2 2h14c1.1 0 2-.9 2-2v-4z"/><path d="m9 0c-2.2 0-4 1.8-4 4s1.8 4 4 4 4-1.8 4-4-1.8-4-4-4zm0 6c-1.1 0-2-.9-2-2s.9-2 2-2 2 .9 2 2-.9 2-2 2z"/></g><path d="m22.6 18.6-9 9-4.2-4.3-2.5 2.5 6.8 6.7 11.4-11.4z" fill="#4caf50"/></g></svg>