<svg width="32" height="44" viewBox="0 0 32 44" xmlns="http://www.w3.org/2000/svg"><g fill="none"><path d="M28 4H18c0 1.1-.9 2-2 2s-2-.9-2-2H4C1.8 4 0 5.8 0 8v32c0 2.2 1.8 4 4 4h24c2.2 0 4-1.8 4-4V8c0-2.2-1.8-4-4-4z" fill="#455A64"/><path d="M28 41H4c-.6 0-1-.4-1-1V8c0-.6.4-1 1-1h24c.6 0 1 .4 1 1v32c0 .6-.4 1-1 1z" fill="#FFF"/><g fill="#90A4AE"><path d="M18 4c0 1.1-.9 2-2 2s-2-.9-2-2H7v4c0 1.1.9 2 2 2h14c1.1 0 2-.9 2-2V4h-7z"/><path d="M16 0c-2.2 0-4 1.8-4 4s1.8 4 4 4 4-1.8 4-4-1.8-4-4-4zm0 6c-1.1 0-2-.9-2-2s.9-2 2-2 2 .9 2 2-.9 2-2 2z"/></g><path fill="#4CAF50" d="M22.6 18.6l-9 9-4.2-4.3-2.5 2.5 6.8 6.7 11.4-11.4z"/></g></svg>