<svg width="40" height="42" viewBox="0 0 40 42" xmlns="http://www.w3.org/2000/svg"><title>fine_print</title><g fill="none"><path fill="#c2e8ff" d="M28 38H0V0h19l9 9z"/><path fill="#FFF" d="M26.5 10H18V1.5z"/><path fill="#0273D4" d="M29.505 33.58l1.98-1.98 8.484 8.485-1.98 1.98z"/><circle fill="#0273D4" cx="23" cy="25" r="11"/><circle fill="#dff1fc" cx="23" cy="25" r="9"/><path fill="#2196F3" d="M31.849 35.88l1.98-1.98 6.15 6.151-1.98 1.98z"/><path d="M25 27h-9.7c.4 1.6 1.3 3 2.5 4H25v-4zm-9.7-4H25v-4h-7.3c-1.2 1-2 2.4-2.4 4zm-.2-7H6v2h7.3c.5-.7 1.1-1.4 1.8-2zm-3 4H6v2h5.4c.2-.7.4-1.4.7-2zM11 25c0-.3 0-.7.1-1H6v2h5.1c-.1-.3-.1-.7-.1-1zm.4 3H6v2h6.1c-.3-.6-.5-1.3-.7-2z" fill="#4E4E4E"/></g></svg>