<?xml version="1.0" encoding="UTF-8"?>
<svg width="40px" height="42px" viewBox="0 0 40 42" version="1.1" xmlns="http://www.w3.org/2000/svg" xmlns:xlink="http://www.w3.org/1999/xlink">
    <!-- Generator: Sketch 42 (36781) - http://www.bohemiancoding.com/sketch -->
    <title>fine_print</title>
    <desc>Created with Sketch.</desc>
    <defs></defs>
    <g id="Page-1" stroke="none" stroke-width="1" fill="none" fill-rule="evenodd">
        <g id="fine_print" fill-rule="nonzero">
            <g id="Group">
                <polygon id="Shape" fill="#c2e8ff" points="28 38 0 38 0 0 19 0 28 9"></polygon>
                <polygon id="Shape" fill="#FFFFFF" points="26.5 10 18 10 18 1.5"></polygon>
                <rect id="Rectangle-path" fill="#0273D4" transform="translate(34.736500, 36.832700) rotate(-45.000000) translate(-34.736500, -36.832700) " x="33.3367114" y="30.8336061" width="2.79957717" height="11.9981879"></rect>
                <circle id="Oval" fill="#0273D4" cx="23" cy="25" r="11"></circle>
                <circle id="Oval" fill="#dff1fc" cx="23" cy="25" r="9"></circle>
                <rect id="Rectangle-path" fill="#2196F3" transform="translate(35.913950, 37.965350) rotate(-45.000000) translate(-35.913950, -37.965350) " x="34.5141614" y="33.6160069" width="2.79957717" height="8.6986862"></rect>
                <g transform="translate(6.000000, 16.000000)" id="Shape" fill="#4E4E4E">
                    <path d="M19,11 L9.3,11 C9.7,12.6 10.6,14 11.8,15 L19,15 L19,11 Z"></path>
                    <path d="M9.3,7 L19,7 L19,3 L11.7,3 C10.5,4 9.7,5.4 9.3,7 Z"></path>
                    <path d="M9.1,0 L0,0 L0,2 L7.3,2 C7.8,1.3 8.4,0.6 9.1,0 Z"></path>
                    <path d="M6.1,4 L0,4 L0,6 L5.4,6 C5.6,5.3 5.8,4.6 6.1,4 Z"></path>
                    <path d="M5,9 C5,8.7 5,8.3 5.1,8 L0,8 L0,10 L5.1,10 C5,9.7 5,9.3 5,9 Z"></path>
                    <path d="M5.4,12 L0,12 L0,14 L6.1,14 C5.8,13.4 5.6,12.7 5.4,12 Z"></path>
                </g>
            </g>
        </g>
    </g>
</svg>
