<?xml version="1.0" encoding="UTF-8"?>
<svg width="38px" height="40px" viewBox="0 0 38 40" version="1.1" xmlns="http://www.w3.org/2000/svg" xmlns:xlink="http://www.w3.org/1999/xlink">
    <!-- Generator: Sketch 42 (36781) - http://www.bohemiancoding.com/sketch -->
    <title>learn-more</title>
    <desc>Created with Sketch.</desc>
    <defs></defs>
    <g id="Page-1" stroke="none" stroke-width="1" fill="none" fill-rule="evenodd">
        <g id="learn-more" fill-rule="nonzero">
            <g id="Group">
                <path d="M35,36 C28.1,36 19,40 19,40 L19,18 C19,18 28,14 37,14 L35,36 Z" id="Shape" fill="#9D9D9D"></path>
                <path d="M3,36 C9.9,36 19,40 19,40 L19,18 C19,18 10,14 1,14 L3,36 Z" id="Shape" fill="#D9D9D9"></path>
                <g fill="#828282">
                    <circle id="Oval" cx="19" cy="8" r="8"></circle>
                    <path d="M36,28 L37,28 C37.6,28 38,27.6 38,27 L38,23 C38,22.4 37.6,22 37,22 L36,22 C34.3,22 33,23.3 33,25 L33,25 C33,26.7 34.3,28 36,28 Z" id="Shape"></path>
                    <path d="M2,22 L1,22 C0.4,22 0,22.4 0,23 L0,27 C0,27.6 0.4,28 1,28 L2,28 C3.7,28 5,26.7 5,25 L5,25 C5,23.3 3.7,22 2,22 Z" id="Shape"></path>
                </g>
            </g>
        </g>
    </g>
</svg>