<svg width="32px" height="44px" viewBox="0 0 32 44" version="1.1" xmlns="http://www.w3.org/2000/svg" xmlns:xlink="http://www.w3.org/1999/xlink">
    <g id="Page-1" stroke="none" stroke-width="1" fill="none" fill-rule="evenodd">
        <g id="inspection" fill-rule="nonzero">
            <path d="M28,4 L18,4 C18,5.1 17.1,6 16,6 C14.9,6 14,5.1 14,4 L4,4 C1.8,4 0,5.8 0,8 L0,40 C0,42.2 1.8,44 4,44 L28,44 C30.2,44 32,42.2 32,40 L32,8 C32,5.8 30.2,4 28,4 Z" id="Shape" fill="#455A64"></path>
            <path d="M28,41 L4,41 C3.4,41 3,40.6 3,40 L3,8 C3,7.4 3.4,7 4,7 L28,7 C28.6,7 29,7.4 29,8 L29,40 C29,40.6 28.6,41 28,41 Z" id="Shape" fill="#FFFFFF"></path>
            <g id="Group" transform="translate(7.000000, 0.000000)" fill="#90A4AE">
                <path d="M11,4 C11,5.1 10.1,6 9,6 C7.9,6 7,5.1 7,4 L0,4 L0,8 C0,9.1 0.9,10 2,10 L16,10 C17.1,10 18,9.1 18,8 L18,4 L11,4 Z" id="Shape"></path>
                <path d="M9,0 C6.8,0 5,1.8 5,4 C5,6.2 6.8,8 9,8 C11.2,8 13,6.2 13,4 C13,1.8 11.2,0 9,0 Z M9,6 C7.9,6 7,5.1 7,4 C7,2.9 7.9,2 9,2 C10.1,2 11,2.9 11,4 C11,5.1 10.1,6 9,6 Z" id="Shape"></path>
            </g>
            <polygon id="Shape" fill="#4CAF50" points="22.6 18.6 13.6 27.6 9.4 23.3 6.9 25.8 13.7 32.5 25.1 21.1"></polygon>
        </g>
    </g>
</svg>
