<?xml version="1.0" encoding="UTF-8"?>
<svg width="40px" height="45px" viewBox="0 0 40 45" version="1.1" xmlns="http://www.w3.org/2000/svg" xmlns:xlink="http://www.w3.org/1999/xlink">
    <!-- Generator: Sketch 42 (36781) - http://www.bohemiancoding.com/sketch -->
    <title>take-action</title>
    <desc>Created with Sketch.</desc>
    <defs></defs>
    <g id="Page-1" stroke="none" stroke-width="1" fill="none" fill-rule="evenodd">
        <g id="take-action" fill-rule="nonzero">
            <g id="Group">
                <circle id="Oval" fill="#F2F2F2" cx="20" cy="20" r="20"></circle>
                <path d="M33,20 C33,12.3 26.4,6.2 18.5,7.1 C12.5,7.8 7.7,12.6 7.1,18.6 C6.6,23.2 8.5,27.3 11.7,29.9 C13.1,31.1 14,32.8 14,34.7 L14,35 L26,35 L26,34.9 C26,33.1 26.8,31.3 28.2,30.1 C31.1,27.7 33,24.1 33,20 Z" id="Shape" fill="#CBCBCB"></path>
                <path d="M26.6,18.2 L23.6,16.2 C23.3,16 22.8,16 22.5,16.2 L20,17.8 L17.6,16.2 C17.3,16 16.8,16 16.5,16.2 L13.5,18.2 C13.3,18.4 13.1,18.6 13.1,18.9 C13.1,19.2 13.1,19.5 13.3,19.7 L17.1,24.4 L17.1,35 L19.1,35 L19.1,24 C19.1,23.8 19,23.6 18.9,23.4 L15.6,19.3 L17.1,18.3 L19.5,19.9 C19.8,20.1 20.3,20.1 20.6,19.9 L23,18.3 L24.5,19.3 L21.2,23.4 C21.1,23.6 21,23.8 21,24 L21,35 L23,35 L23,24.4 L26.8,19.7 C27,19.5 27.1,19.2 27,18.9 C26.9,18.6 26.8,18.3 26.6,18.2 Z" id="Shape" fill="#F7F7F7"></path>
                <circle id="Oval" fill="#A2A1A1" cx="20" cy="42" r="3"></circle>
                <path d="M22,43 L18,43 C15.8,43 14,41.2 14,39 L14,34 L26,34 L26,39 C26,41.2 24.2,43 22,43 Z" id="Shape" fill="#B6B6B6"></path>
                <g transform="translate(14.000000, 35.000000)" id="Shape" fill="#A2A1A1">
                    <path d="M12,4 L0.4,5.6 C0.7,6.3 1.3,7 2,7.4 L11.4,6.1 C11.8,5.5 12,4.8 12,4 Z"></path>
                    <polygon points="0 1.7 0 3.7 12 2 12 0"></polygon>
                </g>
            </g>
        </g>
    </g>
</svg>