<?xml version="1.0" standalone="no"?>
<!DOCTYPE svg PUBLIC "-//W3C//DTD SVG 20010904//EN"
 "http://www.w3.org/TR/2001/REC-SVG-20010904/DTD/svg10.dtd">
<svg version="1.0" xmlns="http://www.w3.org/2000/svg"
 width="16.000000pt" height="16.000000pt" viewBox="0 0 16.000000 16.000000"
 preserveAspectRatio="xMidYMid meet">
<metadata>
Created by potrace 1.11, written by Peter Selinger 2001-2013
</metadata>
<g transform="translate(0.000000,16.000000) scale(0.002286,-0.002286)"
fill="#000000" stroke="none">
<path d="M3370 6985 c-182 -44 -327 -166 -403 -337 -28 -62 -47 -142 -47 -193
l0 -35 -227 0 c-704 -1 -1038 -8 -1093 -24 -203 -58 -363 -222 -416 -428 -16
-58 -17 -263 -17 -2468 0 -2237 2 -2410 17 -2470 29 -108 74 -188 151 -266 78
-79 146 -121 250 -155 l70 -24 1840 0 c2023 0 1874 -5 2015 64 97 47 211 157
258 251 18 36 34 74 37 85 2 11 10 40 16 65 9 33 12 666 12 2450 0 2187 -1
2411 -16 2467 -53 200 -201 359 -397 424 -63 21 -83 22 -635 25 -313 2 -600 4
-636 4 l-66 0 -6 63 c-21 218 -180 414 -397 487 -79 27 -229 34 -310 15z m254
-309 c183 -90 220 -320 74 -465 -139 -137 -379 -91 -461 89 -31 66 -30 180 1
240 78 149 241 207 386 136z"/>
</g>
</svg>
